<?xml version="1.0" encoding="UTF-8" standalone="no"?>
<!-- Created with Inkscape (http://www.inkscape.org/) -->

<svg
   xmlns:dc="http://purl.org/dc/elements/1.1/"
   xmlns:cc="http://creativecommons.org/ns#"
   xmlns:rdf="http://www.w3.org/1999/02/22-rdf-syntax-ns#"
   xmlns:svg="http://www.w3.org/2000/svg"
   xmlns="http://www.w3.org/2000/svg"
   xmlns:sodipodi="http://sodipodi.sourceforge.net/DTD/sodipodi-0.dtd"
   xmlns:inkscape="http://www.inkscape.org/namespaces/inkscape"
   width="64px"
   height="64px"
   id="svg3102"
   version="1.1"
   inkscape:version="0.48.4 r9939"
   sodipodi:docname="TorreonIcono64x64.svg"
   inkscape:export-filename="/home/guivaloz/Imágenes/Torreon2014/TorreonIcono64x64.png"
   inkscape:export-xdpi="90"
   inkscape:export-ydpi="90">
  <defs
     id="defs3104">
    <clipPath
       clipPathUnits="userSpaceOnUse"
       id="clipPath18">
      <path
         inkscape:connector-curvature="0"
         d="m 486.828,409.867 -34.068,34.147 0,-102.336 38.372,0 0,46.883 0.026,0 0,21.306 -4.33,0 z"
         id="path20" />
    </clipPath>
    <linearGradient
       x1="0"
       y1="0"
       x2="1"
       y2="0"
       gradientUnits="userSpaceOnUse"
       gradientTransform="matrix(0,89.153336,89.153336,0,465.74374,342.17204)"
       spreadMethod="pad"
       id="linearGradient26">
      <stop
         style="stop-opacity:1;stop-color:#f79011"
         offset="0"
         id="stop28" />
      <stop
         style="stop-opacity:1;stop-color:#fcca11"
         offset="0.281769"
         id="stop30" />
      <stop
         style="stop-opacity:1;stop-color:#fcca11"
         offset="0.281769"
         id="stop32" />
      <stop
         style="stop-opacity:1;stop-color:#fcca11"
         offset="1"
         id="stop34" />
    </linearGradient>
    <clipPath
       clipPathUnits="userSpaceOnUse"
       id="clipPath46">
      <path
         inkscape:connector-curvature="0"
         d="m 555.24,341.678 0,102.263 -34.12,-34.074 -4.351,0 0,-21.379 -0.026,0 0,-46.81 38.497,0 z"
         id="path48" />
    </clipPath>
    <linearGradient
       x1="0"
       y1="0"
       x2="1"
       y2="0"
       gradientUnits="userSpaceOnUse"
       gradientTransform="matrix(0,101.96579,-101.96579,0,539.41531,341.81615)"
       spreadMethod="pad"
       id="linearGradient54">
      <stop
         style="stop-opacity:1;stop-color:#f79011"
         offset="0"
         id="stop56" />
      <stop
         style="stop-opacity:1;stop-color:#f9a90c"
         offset="0.281769"
         id="stop58" />
      <stop
         style="stop-opacity:1;stop-color:#f9a90c"
         offset="0.281769"
         id="stop60" />
      <stop
         style="stop-opacity:1;stop-color:#f9a90c"
         offset="1"
         id="stop62" />
    </linearGradient>
  </defs>
  <sodipodi:namedview
     id="base"
     pagecolor="#ffffff"
     bordercolor="#666666"
     borderopacity="1.0"
     inkscape:pageopacity="0.0"
     inkscape:pageshadow="2"
     inkscape:zoom="5.5"
     inkscape:cx="32"
     inkscape:cy="32"
     inkscape:current-layer="layer1"
     showgrid="true"
     inkscape:document-units="px"
     inkscape:grid-bbox="true"
     inkscape:window-width="1920"
     inkscape:window-height="1014"
     inkscape:window-x="-2"
     inkscape:window-y="43"
     inkscape:window-maximized="1" />
  <metadata
     id="metadata3107">
    <rdf:RDF>
      <cc:Work
         rdf:about="">
        <dc:format>image/svg+xml</dc:format>
        <dc:type
           rdf:resource="http://purl.org/dc/dcmitype/StillImage" />
        <dc:title></dc:title>
      </cc:Work>
    </rdf:RDF>
  </metadata>
  <g
     id="layer1"
     inkscape:label="Layer 1"
     inkscape:groupmode="layer">
    <g
       transform="matrix(0.62451088,0,0,-0.62538965,-282.75355,277.68176)"
       id="g3041">
      <path
         inkscape:connector-curvature="0"
         id="path12"
         style="fill:#f79011;fill-opacity:1;fill-rule:nonzero;stroke:none"
         d="m 452.787,409.867 102.331,0 0,34.147 -102.331,0 0,-34.147 z" />
      <g
         id="g14">
        <g
           clip-path="url(#clipPath18)"
           id="g16">
          <g
             id="g22">
            <g
               id="g24">
              <path
                 inkscape:connector-curvature="0"
                 id="path36"
                 style="fill:url(#linearGradient26);stroke:none"
                 d="m 486.828,409.867 -34.068,34.147 0,-102.336 38.372,0 0,46.883 0.026,0 0,21.306 -4.33,0 z" />
            </g>
          </g>
        </g>
      </g>
      <g
         transform="translate(452.7792,341.6778)"
         id="g38">
        <path
           inkscape:connector-curvature="0"
           id="path40"
           style="fill:#f9a90c;fill-opacity:1;fill-rule:nonzero;stroke:none"
           d="m 0,0 3.064,0 0,99.245 L 0,102.316 0,0 z m 33.564,42.601 -0.007,0 0,-42.601 4.796,0 0,46.884 0.027,0 0,21.305 -4.331,0 -0.485,0.487 0,-26.075 z" />
      </g>
      <g
         id="g42">
        <g
           clip-path="url(#clipPath46)"
           id="g44">
          <g
             id="g50">
            <g
               id="g52">
              <path
                 inkscape:connector-curvature="0"
                 id="path64"
                 style="fill:url(#linearGradient54);stroke:none"
                 d="m 555.24,341.678 0,102.263 -34.12,-34.074 -4.351,0 0,-21.379 -0.026,0 0,-46.81 38.497,0 z" />
            </g>
          </g>
        </g>
      </g>
      <g
         transform="translate(521.1207,409.8672)"
         id="g66">
        <path
           inkscape:connector-curvature="0"
           id="path68"
           style="fill:#f79011;fill-opacity:1;fill-rule:nonzero;stroke:none"
           d="m 0,0 -4.352,0 0,-21.379 -0.026,0 0,-46.81 4.378,0 0,42.6 0.025,0 0,25.614 L 0,0 z" />
      </g>
      <g
         transform="translate(552.8322,441.536)"
         id="g70">
        <path
           inkscape:connector-curvature="0"
           id="path72"
           style="fill:#fcca11;fill-opacity:1;fill-rule:nonzero;stroke:none"
           d="m 0,0 0,-99.854 2.408,0 0,102.259 L 0,0 z" />
      </g>
    </g>
  </g>
</svg>
